<?xml version="1.0" standalone="no"?>
<!DOCTYPE svg PUBLIC "-//W3C//DTD SVG 20010904//EN"
 "http://www.w3.org/TR/2001/REC-SVG-20010904/DTD/svg10.dtd">
<svg version="1.0" xmlns="http://www.w3.org/2000/svg"
 width="300.000000pt" height="300.000000pt" viewBox="0 0 300.000000 300.000000"
 preserveAspectRatio="xMidYMid meet">

<g transform="translate(0.000000,300.000000) scale(0.100000,-0.100000)"
fill="#000000" stroke="none">
<path d="M0 1500 l0 -1500 1500 0 1500 0 0 1500 0 1500 -1500 0 -1500 0 0
-1500z m1213 1128 c3 -13 22 -97 41 -188 34 -161 163 -764 232 -1085 19 -88
39 -180 44 -205 5 -25 20 -99 35 -165 14 -66 44 -205 66 -310 23 -104 46 -216
53 -248 7 -31 10 -59 8 -62 -9 -9 -311 -5 -316 4 -5 8 -33 132 -92 416 -14 66
-28 128 -30 138 -5 15 -24 17 -208 17 l-203 0 -17 -83 c-80 -384 -100 -474
-109 -484 -11 -16 -302 -18 -312 -4 -4 8 38 225 75 386 5 22 52 240 104 485
307 1439 297 1394 310 1402 6 4 79 8 162 8 149 0 152 0 157 -22z m835 -997 c2
-797 5 -1017 15 -1023 6 -4 135 -8 285 -8 l273 0 -3 -117 -3 -118 -445 0 -445
0 -3 1130 c-1 622 0 1136 3 1143 3 10 42 12 162 10 l158 -3 3 -1014z"/>
<path d="M1041 2115 c-1 -5 -15 -91 -32 -190 -17 -99 -34 -205 -39 -235 -5
-30 -24 -149 -44 -263 -20 -115 -36 -217 -36 -228 0 -18 9 -19 154 -19 85 0
157 4 160 8 3 5 -10 98 -29 208 -19 109 -53 309 -76 442 -35 212 -56 312 -58
277z"/>
</g>
</svg>
